# xmcd
#
# Track frame offsets: 
#        150
#        13017
#        30360
#        43570
#        61867
#        74222
#        90267
#        107340
#        119017
#        136022
#
# Disc length: 2018 seconds
#
# Revision: 0
# Processed by: cddbd v1.5.2PL0 Copyright (c) Steve Scherf et al.
# Submitted via: ExactAudioCopy v0.95b4
#
DISCID=7a07e00a
DTITLE=White Water - No Gold On the Highway
DYEAR=1996
DGENRE=Bluegrass
TTITLE0=No Gold On The Highway
TTITLE1=Raisin' Cain
TTITLE2=Cuttin' Through Caroline
TTITLE3=Lock Stock and Barrel
TTITLE4=Human Nature
TTITLE5=White Line
TTITLE6=All The Time
TTITLE7=Fight The Blues Alone
TTITLE8=Past Ain't Far Behind
TTITLE9=As Alway
EXTD=
EXTT0=
EXTT1=
EXTT2=
EXTT3=
EXTT4=
EXTT5=
EXTT6=
EXTT7=
EXTT8=
EXTT9=
PLAYORDER=
